<?xml version="1.0" standalone="no"?>
<!DOCTYPE svg PUBLIC "-//W3C//DTD SVG 20010904//EN"
 "http://www.w3.org/TR/2001/REC-SVG-20010904/DTD/svg10.dtd">
<svg version="1.0" xmlns="http://www.w3.org/2000/svg"
 width="300.000000pt" height="300.000000pt" viewBox="0 0 300.000000 300.000000"
 preserveAspectRatio="xMidYMid meet">
<metadata>
Created by potrace 1.14, written by Peter Selinger 2001-2017
</metadata>
<g transform="translate(0.000000,300.000000) scale(0.100000,-0.100000)"
fill="#000000" stroke="none">
<path d="M0 1500 l0 -1500 1500 0 1500 0 0 1500 0 1500 -1500 0 -1500 0 0
-1500z m1044 544 c21 -8 158 -293 151 -315 -6 -18 -39 -31 -58 -23 -7 2 -33
38 -59 79 -26 41 -51 75 -55 75 -4 0 -28 -34 -52 -75 -45 -76 -78 -98 -107
-74 -20 16 -18 27 17 100 17 35 47 97 65 138 47 103 56 111 98 95z m972 -12
c29 -34 145 -288 139 -304 -8 -21 -45 -30 -64 -15 -8 7 -34 42 -58 80 -23 37
-46 67 -50 67 -5 0 -27 -33 -51 -74 -44 -77 -78 -100 -108 -75 -20 16 -18 27
17 100 17 35 47 97 65 138 19 41 39 80 45 88 16 19 46 16 65 -5z m-932 -503
c14 -7 28 -19 33 -28 4 -9 10 -81 13 -161 l5 -145 376 -3 377 -2 6 92 c4 51 6
118 5 148 -4 88 25 118 100 105 78 -13 76 -7 76 -251 l0 -218 -32 -8 c-17 -4
-267 -7 -555 -6 l-523 3 -3 208 c-2 197 -1 211 19 243 23 37 56 44 103 23z"/>
</g>
</svg>
